<svg xmlns="http://www.w3.org/2000/svg" enable-background="new 0 0 512 512" viewBox="0 0 512 512"><path fill="#275313" d="M270.038,122.478c-27.355,0-49.61-22.249-49.61-49.597c0-27.362,22.255-49.623,49.61-49.623
						c27.362,0,49.623,22.261,49.623,49.623C319.661,100.229,297.4,122.478,270.038,122.478z M270.038,29.258
						c-24.047,0-43.61,19.569-43.61,43.623c0,24.039,19.563,43.597,43.61,43.597c24.054,0,43.623-19.558,43.623-43.597
						C313.661,48.827,294.092,29.258,270.038,29.258z" class="color010101 svgShape"/><path fill="#275313" d="M313.639,64.096c-13.593,0-26.29-5.405-35.753-15.221c-1.104-1.146-1.122-2.957-0.038-4.124
						c4.084-4.396,7.15-9.479,9.115-15.107c0.279-0.802,0.887-1.448,1.67-1.777c0.783-0.329,1.67-0.311,2.438,0.05
						c13.397,6.292,23.234,18.098,26.987,32.388c0.232,0.886,0.048,1.83-0.501,2.562c-0.55,0.733-1.404,1.174-2.319,1.199
						C314.642,64.083,314.14,64.096,313.639,64.096z M284.174,46.632c7.443,6.834,16.83,10.811,26.895,11.39
						c-3.565-9.842-10.525-18.054-19.685-23.199C289.555,39.084,287.141,43.038,284.174,46.632z" class="color010101 svgShape"/><path fill="#275313" d="M245.811 64.807c-7.334 0-14.409-1.567-21.027-4.657-1.398-.652-2.073-2.258-1.561-3.713 6.979-19.845 25.792-33.179 46.815-33.179 7.334 0 14.408 1.567 21.026 4.657 1.396.652 2.071 2.257 1.562 3.711C285.662 51.472 266.849 64.807 245.811 64.807zM229.896 55.817c5.065 1.985 10.406 2.989 15.915 2.989 17.556 0 33.35-10.564 40.144-26.559-5.065-1.985-10.407-2.99-15.916-2.99C252.495 29.258 236.701 39.821 229.896 55.817zM356.667 213.973H181.754c-1.657 0-3-1.343-3-3v-50.15c0-1.193.707-2.273 1.801-2.75l58.123-25.348c1.11-.484 2.405-.253 3.279.588l26.24 25.25 28.307-25.324c.873-.781 2.123-.983 3.198-.514l58.163 25.348c1.095.477 1.802 1.557 1.802 2.75v50.15C359.667 212.629 358.324 213.973 356.667 213.973zM184.754 207.973h168.913v-45.185l-54.598-23.794-28.946 25.896c-1.169 1.047-2.947 1.015-4.08-.074l-26.803-25.791-54.486 23.761V207.973z" class="color010101 svgShape"/><path fill="#275313" d="M300.227,171.575h-62.046c-0.822,0-1.608-0.337-2.175-0.934s-0.863-1.399-0.821-2.22
						l1.696-33.101c0.085-1.655,1.497-2.916,3.149-2.843c1.655,0.085,2.928,1.495,2.843,3.149l-1.535,29.947h55.784l-1.015-29.752
						c-0.057-1.656,1.24-3.044,2.896-3.101c1.686-0.076,3.045,1.24,3.101,2.896l1.121,32.854c0.028,0.813-0.275,1.603-0.841,2.188
						S301.04,171.575,300.227,171.575z" class="color010101 svgShape"/><path fill="#275313" d="M268.875 164.957h-1.435c-.775 0-1.521-.3-2.08-.838l-19.798-19.046c-.588-.566-.92-1.346-.92-2.162v-29.177c0-1.061.56-2.042 1.473-2.582.913-.54 2.043-.558 2.972-.047 6.396 3.515 13.64 5.373 20.951 5.373 6.921 0 13.539-1.575 19.673-4.68.932-.47 2.039-.425 2.926.12.889.546 1.43 1.514 1.43 2.556v27.646c0 .854-.364 1.667-1.001 2.237l-22.191 19.838C270.324 164.685 269.612 164.957 268.875 164.957zM250.643 141.634l17.563 16.896 19.86-17.754v-21.675c-5.725 2.242-11.769 3.376-18.028 3.376-6.665 0-13.284-1.358-19.396-3.956V141.634zM405.627 252.885H132.794c-1.657 0-3-1.343-3-3v-38.912c0-1.657 1.343-3 3-3h272.833c1.657 0 3 1.343 3 3v38.912C408.627 251.542 407.284 252.885 405.627 252.885zM135.794 246.885h266.833v-32.912H135.794V246.885z" class="color010101 svgShape"/><path fill="#275313" d="M361.069,279.818H177.338c-0.547,0-1.084-0.149-1.552-0.433l-44.544-26.934
						c-1.152-0.697-1.699-2.076-1.337-3.373c0.361-1.297,1.543-2.194,2.89-2.194h272.833c1.347,0,2.528,0.897,2.89,2.194
						c0.361,1.297-0.186,2.676-1.338,3.373l-44.558,26.934C362.153,279.669,361.616,279.818,361.069,279.818z M178.174,273.818
						h182.059l34.631-20.934H143.553L178.174,273.818z" class="color010101 svgShape"/><path fill="#275313" d="M361.069 405.416h-61.226c-.963 0-1.867-.462-2.432-1.242-.563-.781-.719-1.784-.417-2.699.97-2.937 1.462-5.982 1.462-9.055 0-15.813-12.865-28.678-28.679-28.678S241.1 376.607 241.1 392.42c0 3.072.492 6.118 1.462 9.055.302.915.147 1.918-.417 2.699-.564.78-1.468 1.242-2.431 1.242h-62.375c-1.657 0-3-1.343-3-3V276.818c0-1.657 1.343-3 3-3h183.731c1.657 0 3 1.343 3 3v125.598C364.069 404.073 362.727 405.416 361.069 405.416zM303.745 399.416h54.324V279.818H180.338v119.598h55.474c-.473-2.302-.712-4.643-.712-6.996 0-19.121 15.557-34.678 34.679-34.678s34.679 15.557 34.679 34.678C304.457 394.773 304.219 397.114 303.745 399.416zM384.545 213.973c-1.657 0-3-1.343-3-3v-54.348l-12.396-12.383c-1.172-1.171-1.173-3.07-.002-4.243 1.169-1.172 3.069-1.173 4.242-.002l13.276 13.262c.563.563.88 1.326.88 2.123v55.592C387.545 212.629 386.202 213.973 384.545 213.973zM153.042 213.973c-1.657 0-3-1.343-3-3v-55.592c0-.796.316-1.559.879-2.122l13.263-13.262c1.171-1.171 3.071-1.17 4.243 0 1.171 1.171 1.171 3.071 0 4.243l-12.384 12.383v54.349C156.042 212.629 154.699 213.973 153.042 213.973zM137.414 427.101c-19.122 0-34.678-15.558-34.678-34.681 0-19.121 15.556-34.678 34.678-34.678 19.115 0 34.666 15.557 34.666 34.678C172.08 411.543 156.529 427.101 137.414 427.101zM137.414 363.742c-15.813 0-28.678 12.865-28.678 28.678 0 15.814 12.865 28.681 28.678 28.681 15.807 0 28.666-12.866 28.666-28.681C166.08 376.607 153.221 363.742 137.414 363.742zM196.247 489.241H77.42c-1.657 0-3-1.343-3-3v-34.072c0-1.193.708-2.273 1.802-2.75l39.5-17.213c1.109-.484 2.404-.254 3.278.588l17.177 16.529 18.571-16.604c.874-.781 2.123-.981 3.198-.514l39.5 17.213c1.094.477 1.802 1.557 1.802 2.75v34.072C199.247 487.898 197.904 489.241 196.247 489.241zM80.42 483.241h112.827v-29.107l-35.935-15.659-19.211 17.176c-1.169 1.047-2.949 1.014-4.08-.074l-17.739-17.07L80.42 454.134V483.241z" class="color010101 svgShape"/><path fill="#275313" d="M136.621 455.948h-.984c-.776 0-1.521-.301-2.08-.839l-13.453-12.947c-.588-.565-.92-1.346-.92-2.161v-19.813c0-1.059.558-2.039 1.469-2.58.911-.539 2.038-.561 2.968-.053 4.215 2.301 8.984 3.517 13.793 3.517 4.529 0 8.878-1.033 12.927-3.069.93-.468 2.035-.421 2.922.126.886.546 1.426 1.513 1.426 2.554v18.786c0 .854-.364 1.667-1 2.236l-15.068 13.479C138.071 455.676 137.359 455.948 136.621 455.948zM125.184 438.725l11.002 10.588 12.504-11.186v-12.929c-3.614 1.245-7.39 1.874-11.275 1.874-4.178 0-8.332-.76-12.23-2.221V438.725zM269.778 427.101c-19.122 0-34.679-15.558-34.679-34.681 0-19.121 15.557-34.678 34.679-34.678s34.679 15.557 34.679 34.678C304.457 411.543 288.9 427.101 269.778 427.101zM269.778 363.742c-15.813 0-28.679 12.865-28.679 28.678 0 15.814 12.865 28.681 28.679 28.681s28.679-12.866 28.679-28.681C298.457 376.607 285.592 363.742 269.778 363.742zM328.625 489.241H209.797c-1.657 0-3-1.343-3-3v-34.072c0-1.193.707-2.273 1.801-2.75l39.486-17.213c1.109-.484 2.403-.253 3.278.588l17.191 16.529 18.571-16.604c.874-.781 2.123-.984 3.198-.514l39.5 17.213c1.095.477 1.802 1.557 1.802 2.75v34.072C331.625 487.898 330.282 489.241 328.625 489.241zM212.797 483.241h112.828v-29.107l-35.935-15.659-19.211 17.176c-1.17 1.045-2.949 1.014-4.079-.074l-17.753-17.07-35.85 15.628V483.241z" class="color010101 svgShape"/><path fill="#275313" d="M268.985 455.948h-.972c-.775 0-1.521-.301-2.08-.839l-13.453-12.947c-.588-.565-.92-1.346-.92-2.161v-19.813c0-1.059.558-2.039 1.469-2.58.91-.539 2.038-.561 2.968-.053 4.215 2.301 8.979 3.517 13.78 3.517 4.539 0 8.892-1.032 12.938-3.069.928-.468 2.036-.422 2.923.126.886.546 1.426 1.513 1.426 2.554v18.786c0 .854-.364 1.668-1.001 2.236l-15.08 13.479C270.435 455.677 269.723 455.948 268.985 455.948zM257.561 438.725l10.996 10.583 12.509-11.181v-12.929c-3.615 1.245-7.395 1.874-11.287 1.874-4.172 0-8.321-.76-12.218-2.221V438.725zM402.141 427.101c-19.114 0-34.665-15.558-34.665-34.681 0-19.121 15.551-34.678 34.665-34.678 19.122 0 34.68 15.557 34.68 34.678C436.82 411.543 421.263 427.101 402.141 427.101zM402.141 363.742c-15.806 0-28.665 12.865-28.665 28.678 0 15.814 12.859 28.681 28.665 28.681 15.814 0 28.68-12.866 28.68-28.681C430.82 376.607 417.955 363.742 402.141 363.742zM460.988 489.241H342.16c-1.657 0-3-1.343-3-3v-34.072c0-1.193.707-2.273 1.802-2.75l39.5-17.213c1.111-.484 2.404-.253 3.277.588l17.189 16.529 18.559-16.603c.873-.782 2.124-.985 3.198-.515l39.501 17.213c1.095.477 1.802 1.557 1.802 2.75v34.072C463.988 487.898 462.646 489.241 460.988 489.241zM345.16 483.241h112.828v-29.107l-35.936-15.658-19.197 17.174c-1.17 1.046-2.948 1.015-4.079-.073l-17.753-17.07-35.863 15.628V483.241z" class="color010101 svgShape"/><path fill="#275313" d="M401.349 455.948h-.972c-.775 0-1.521-.301-2.08-.839l-13.453-12.947c-.588-.565-.92-1.346-.92-2.161v-19.813c0-1.059.559-2.039 1.469-2.58.912-.539 2.039-.561 2.969-.053 4.215 2.301 8.979 3.517 13.779 3.517 4.539 0 8.893-1.032 12.939-3.069.929-.468 2.035-.422 2.923.126.886.546 1.426 1.513 1.426 2.554v18.786c0 .854-.364 1.668-1.001 2.236l-15.08 13.479C402.798 455.677 402.086 455.948 401.349 455.948zM389.924 438.725l10.996 10.583 12.509-11.181v-12.929c-3.615 1.245-7.396 1.874-11.288 1.874-4.172 0-8.32-.76-12.217-2.221V438.725zM93.225 189.062c-22.944 0-41.611-18.654-41.611-41.584 0-5.012.892-9.937 2.652-14.64.579-1.548 2.298-2.337 3.85-1.763l29.023 10.729-10.81-29.244c-.567-1.534.199-3.239 1.722-3.834 4.855-1.896 9.96-2.858 15.174-2.858 22.937 0 41.598 18.667 41.598 41.61C134.822 170.407 116.162 189.062 93.225 189.062zM58.954 137.781c-.891 3.154-1.34 6.404-1.34 9.696 0 19.621 15.975 35.584 35.611 35.584 19.628 0 35.598-15.963 35.598-35.584 0-19.636-15.969-35.61-35.598-35.61-3.477 0-6.898.5-10.205 1.488l12.007 32.482c.406 1.099.136 2.333-.692 3.161-.828.829-2.063 1.099-3.162.693L58.954 137.781z" class="color010101 svgShape"/><path fill="#275313" d="M92.212 149.877c-.349 0-.701-.061-1.04-.186L48.35 133.857c-1.554-.575-2.348-2.3-1.773-3.854 4.931-13.34 15.414-23.829 28.762-28.775.748-.276 1.573-.245 2.295.087.724.333 1.285.939 1.561 1.686l15.832 42.836c.406 1.099.136 2.333-.693 3.162C93.761 149.571 92.994 149.877 92.212 149.877zM53.343 129.306l33.796 12.497-12.495-33.806C65.179 112.278 57.615 119.845 53.343 129.306zM388.633 97.388h-13.836c-1.657 0-3-1.343-3-3V61.615c0-1.657 1.343-3 3-3h13.836c1.657 0 3 1.343 3 3v32.772C391.633 96.044 390.29 97.388 388.633 97.388zM377.797 91.388h7.836V64.615h-7.836V91.388zM411.822 97.388h-13.837c-1.657 0-3-1.343-3-3V40.423c0-1.657 1.343-3 3-3h13.837c1.657 0 3 1.343 3 3v53.965C414.822 96.044 413.479 97.388 411.822 97.388zM400.985 91.388h7.837V43.423h-7.837V91.388zM435.01 97.388h-13.822c-1.657 0-3-1.343-3-3V67.411c0-1.657 1.343-3 3-3h13.822c1.657 0 3 1.343 3 3v26.977C438.01 96.044 436.667 97.388 435.01 97.388zM424.188 91.388h7.822V70.411h-7.822V91.388zM458.197 97.388h-13.822c-1.657 0-3-1.343-3-3V50.459c0-1.657 1.343-3 3-3h13.822c1.657 0 3 1.343 3 3v43.929C461.197 96.044 459.854 97.388 458.197 97.388zM447.375 91.388h7.822V53.459h-7.822V91.388zM463.106 105.194h-93.205c-1.657 0-3-1.343-3-3s1.343-3 3-3h93.205c1.657 0 3 1.343 3 3S464.764 105.194 463.106 105.194zM431.618 213.973H106.802c-1.657 0-3-1.343-3-3s1.343-3 3-3h324.816c1.657 0 3 1.343 3 3S433.275 213.973 431.618 213.973zM170.611 88.666h-58.204c-1.657 0-3-1.343-3-3s1.343-3 3-3h58.204c1.657 0 3 1.343 3 3S172.268 88.666 170.611 88.666zM170.611 75.744h-58.204c-1.657 0-3-1.343-3-3s1.343-3 3-3h58.204c1.657 0 3 1.343 3 3S172.268 75.744 170.611 75.744zM170.611 62.81h-58.204c-1.657 0-3-1.343-3-3s1.343-3 3-3h58.204c1.657 0 3 1.343 3 3S172.268 62.81 170.611 62.81zM170.611 49.861h-58.204c-1.657 0-3-1.343-3-3s1.343-3 3-3h58.204c1.657 0 3 1.343 3 3S172.268 49.861 170.611 49.861z" class="color010101 svgShape"/></svg>