<svg xmlns="http://www.w3.org/2000/svg" viewBox="0 0 60 60"><path fill="#275313" d="M2,51H30v5a4,4,0,0,0,4,4H56a4,4,0,0,0,4-4V34a4,4,0,0,0-4-4H50V7a2,2,0,0,0,2-2V2a2,2,0,0,0-2-2H17a2,2,0,0,0-2,2V5a2,2,0,0,0,2,2v9H2a2,2,0,0,0-2,2V49A2,2,0,0,0,2,51Zm28-2H27V41h3Zm0-15v5H27a2,2,0,0,0-2,2v8H19V7H48V30H34A4,4,0,0,0,30,34Zm26-2a2,2,0,0,1,2,2V56a2,2,0,0,1-2,2H34a2,2,0,0,1-2-2V34a2,2,0,0,1,2-2ZM17,2H50V5H17ZM2,18H17V49H2Z" class="color000000 svgShape"/><path fill="#275313" d="M26 10H23a2 2 0 00-2 2v3a2 2 0 002 2h3a2 2 0 002-2V12A2 2 0 0026 10zm-3 5V12h3l0 3zM32 17h3a2 2 0 002-2V12a2 2 0 00-2-2H32a2 2 0 00-2 2v3A2 2 0 0032 17zm0-5h3l0 3H32zM11 20H8a2 2 0 00-2 2v3a2 2 0 002 2h3a2 2 0 002-2V22A2 2 0 0011 20zM8 25V22h3l0 3zM11 30H8a2 2 0 00-2 2v3a2 2 0 002 2h3a2 2 0 002-2V32A2 2 0 0011 30zM8 35V32h3l0 3zM11 40H8a2 2 0 00-2 2v3a2 2 0 002 2h3a2 2 0 002-2V42A2 2 0 0011 40zM8 45V42h3l0 3zM41 17h3a2 2 0 002-2V12a2 2 0 00-2-2H41a2 2 0 00-2 2v3A2 2 0 0041 17zm0-5h3l0 3H41zM26 20H23a2 2 0 00-2 2v3a2 2 0 002 2h3a2 2 0 002-2V22A2 2 0 0026 20zm-3 5V22h3l0 3zM37 25V22a2 2 0 00-2-2H32a2 2 0 00-2 2v3a2 2 0 002 2h3A2 2 0 0037 25zm-5-3h3l0 3H32zM41 27h3a2 2 0 002-2V22a2 2 0 00-2-2H41a2 2 0 00-2 2v3A2 2 0 0041 27zm0-5h3l0 3H41zM26 30H23a2 2 0 00-2 2v3a2 2 0 002 2h3a2 2 0 002-2V32A2 2 0 0026 30zm-3 5V32h3l0 3zM37 52a1 1 0 001-1V46h4v5a1 1 0 002 0V39a1 1 0 00-2 0v5H38V39a1 1 0 00-2 0V51A1 1 0 0037 52zM47 52a1 1 0 001-1V46h2a2 2 0 012 2v3a1 1 0 002 0V48a3.974 3.974 0 00-1.382-3A3.983 3.983 0 0050 38H47a1 1 0 00-1 1V51A1 1 0 0047 52zm1-12h2a2 2 0 010 4H48z" class="color000000 svgShape"/></svg>