<svg xmlns="http://www.w3.org/2000/svg" viewBox="0 0 512 512">
<path fill="#275313"   d="M175.00781,176.06152a8.00092,8.00092,0,0,0-6.94629,8.93067l8,64a8.00117,8.00117,0,0,0,7.92871,7.00879,8.10577,8.10577,0,0,0,1.002-.0625,8.00092,8.00092,0,0,0,6.94629-8.93067l-8-64A7.99465,7.99465,0,0,0,175.00781,176.06152Z"/><path fill="#275313" d="M23.33594 255.97266q.33837.02783.67285.02734a8.00105 8.00105 0 0 0 7.96387-7.33594l6.248-74.97265A23.97016 23.97016 0 0 1 54.54688 152.917l25.46386-8.488a23.94015 23.94015 0 0 0 7.80176 17.2727l-7.7793 85.57373a7.99921 7.99921 0 0 0 7.24219 8.69141q.3706.03369.7334.03418a8.00067 8.00067 0 0 0 7.958-7.27637l7.34033-80.74219c.23071.00659.46045.01758.69287.01758s.46216-.011.69287-.01758l7.34033 80.74219a8.00067 8.00067 0 0 0 7.958 7.27637q.36329 0 .7334-.03418a7.99921 7.99921 0 0 0 7.24219-8.69141l-7.7793-85.57373A23.93936 23.93936 0 0 0 127.989 144.4292l45.48072 15.16064a7.99078 7.99078 0 0 0 7.23535-1.12011l88-64a7.9997 7.9997 0 0 0-9.41016-12.93946L174.624 143.1084l-55.81323-18.60474 13.47339-13.47339A39.74237 39.74237 0 0 0 144 82.74512V24a8.00039 8.00039 0 0 0-8-8H104A40.04584 40.04584 0 0 0 64 56V82.74512a39.74237 39.74237 0 0 0 11.71582 28.28515l13.47339 13.47339L49.4873 137.7373a39.95462 39.95462 0 0 0-27.21191 34.626l-6.24805 74.97266A8.00129 8.00129 0 0 0 23.33594 255.97266zM80 82.74512V56a24.0275 24.0275 0 0 1 24-24h24V82.74512a23.84267 23.84267 0 0 1-7.03027 16.9707L104 116.68652 87.03027 99.71582A23.84267 23.84267 0 0 1 80 82.74512zM416.01855 207.07715l9.84668-2.36035A7.99929 7.99929 0 0 0 432 196.9375v-17.875a7.99929 7.99929 0 0 0-6.13477-7.7793l-9.84472-2.36035a6.59215 6.59215 0 0 1-4.085-9.85449l5.32519-8.68945a7.99913 7.99913 0 0 0-1.16406-9.83594L403.459 127.9043a7.99888 7.99888 0 0 0-9.83691-1.165l-8.69043 5.32519a6.59271 6.59271 0 0 1-9.85449-4.083l-2.36035-9.84668A7.99929 7.99929 0 0 0 364.9375 112h-17.875a7.99929 7.99929 0 0 0-7.7793 6.13477l-2.36035 9.84472a6.59215 6.59215 0 0 1-9.85449 4.085l-8.68945-5.32519a8.00046 8.00046 0 0 0-9.83594 1.16406L295.9043 140.541a7.99935 7.99935 0 0 0-1.165 9.83691l5.32519 8.69043a6.59271 6.59271 0 0 1-4.083 9.85449l-9.84668 2.36035A7.99929 7.99929 0 0 0 280 179.0625v17.875a7.99929 7.99929 0 0 0 6.13477 7.7793l9.84472 2.36035a6.59215 6.59215 0 0 1 4.085 9.85449l-5.32519 8.68945a7.99913 7.99913 0 0 0 1.16406 9.83594L308.541 248.0957a8.00037 8.00037 0 0 0 9.83691 1.165l8.69043-5.32519a6.59271 6.59271 0 0 1 9.85449 4.083l2.36035 9.84668A7.99929 7.99929 0 0 0 347.0625 264h17.875a7.99929 7.99929 0 0 0 7.7793-6.13477l2.36035-9.84472a6.59215 6.59215 0 0 1 9.85449-4.085l8.68945 5.32519a8.00046 8.00046 0 0 0 9.83594-1.16406L416.0957 235.459a7.99935 7.99935 0 0 0 1.165-9.83691l-5.32519-8.69043a6.59271 6.59271 0 0 1 4.083-9.85449zM356 176a12 12 0 1 1-12 12A12.01312 12.01312 0 0 1 356 176z"/><path fill="#275313" d="M168,120a8.00039,8.00039,0,0,0,8-8V40a8.00917,8.00917,0,0,1,8-8H451.12305A40.991,40.991,0,0,0,448,48V248a8,8,0,0,0,16,0V78.23608a19.02337,19.02337,0,0,0,16,0V200a8,8,0,0,0,16,0V48c0-17.94434-10.542-32-24-32H184a24.0275,24.0275,0,0,0-24,24v72A8.00039,8.00039,0,0,0,168,120Z"/><path fill="#275313" d="M376 56a8.00039 8.00039 0 0 0-8-8H256a8 8 0 0 0 0 16H368A8.00039 8.00039 0 0 0 376 56zM424 80H296a8 8 0 0 0 0 16H424a8 8 0 0 0 0-16zM256 160H216a8 8 0 0 0 0 16h40a8 8 0 0 0 0-16zM256 200H216a8 8 0 0 0 0 16h40a8 8 0 0 0 0-16zM495.96 487.2041l-5.9375-59.37988a40.05331 40.05331 0 0 0-27.15332-33.96777l-40.05859-13.35254 13.47363-13.47364A39.74237 39.74237 0 0 0 448 338.74512V280a8.00039 8.00039 0 0 0-8-8H408a40.04584 40.04584 0 0 0-40 40v26.74512a39.74237 39.74237 0 0 0 11.71582 28.28515l13.47363 13.47364-40.05957 13.35254A39.99416 39.99416 0 0 0 332 410.44336a39.99367 39.99367 0 0 0-21.13086-16.58691l-40.05859-13.35254 13.47363-13.47364A39.74237 39.74237 0 0 0 296 338.74512V280a8.00039 8.00039 0 0 0-8-8H256a40.04584 40.04584 0 0 0-40 40v26.74512a39.74237 39.74237 0 0 0 11.71582 28.28515l13.47363 13.47364-40.05957 13.35254A39.99416 39.99416 0 0 0 180 410.44336a39.99367 39.99367 0 0 0-21.13086-16.58691l-40.05835-13.35254 13.47339-13.47364A39.74237 39.74237 0 0 0 144 338.74512V280a8.00039 8.00039 0 0 0-8-8H104a40.04584 40.04584 0 0 0-40 40v26.74512a39.74237 39.74237 0 0 0 11.71582 28.28515l13.47339 13.47315-40.05933 13.353a40.05378 40.05378 0 0 0-27.15234 33.96777L16.04 487.2041A7.99965 7.99965 0 0 0 31.96 488.7959l5.9375-59.37988a24.03371 24.03371 0 0 1 16.292-20.37989L104 392.43262l49.80957 16.60351a24.03324 24.03324 0 0 1 16.293 20.37989l1.93677 19.37011.00732.07325L176.04 488.7959A7.99965 7.99965 0 1 0 191.96 487.2041l-3.92041-39.20605 1.85791-18.582a24.03371 24.03371 0 0 1 16.292-20.37989L256 392.43262l49.80957 16.60351a24.03324 24.03324 0 0 1 16.293 20.37989l1.93677 19.37011.00732.07325L328.04 488.7959A7.99965 7.99965 0 0 0 343.96 487.2041l-3.92041-39.20605 1.85791-18.582a24.03371 24.03371 0 0 1 16.292-20.37989L408 392.43262l49.80957 16.60351a24.03324 24.03324 0 0 1 16.293 20.37989L480.04 488.7959A7.99965 7.99965 0 1 0 495.96 487.2041z"/></svg>