<svg xmlns="http://www.w3.org/2000/svg" viewBox="0 0 512 512"><g fill="#275313" class="color000000 svgShape" data-name="12 Join"><path d="M458.79 180.13h-226.6c0 .88.05 1.76.05 2.64v38.42a26.72 26.72 0 0 1 8.84 43.81h.16a6 6 0 0 1 6 6v5.7a13.4 13.4 0 0 0 26.8 0v-60.81a6 6 0 0 1 12 0v41.41s.1 21.91-.27 23.11a25.4 25.4 0 0 1-50.53-3.71V271a6 6 0 0 1 .26-1.76 26.42 26.42 0 0 1-10.5 3.37 96.52 96.52 0 0 1-31.8 38.89 69 69 0 0 1 11.73 20.36h253.86a36.24 36.24 0 0 0 36.21-36.2v-79.33a36.24 36.24 0 0 0-36.21-36.2Zm-126.36 122C309.59 302.11 291 281.43 291 256s18.58-46.11 41.42-46.11 41.41 20.68 41.41 46.11-18.57 46.11-41.4 46.11Zm64.24-6a6 6 0 0 1-12 0v-80.24a6 6 0 1 1 12 0ZM474 294.9a7 7 0 0 1-13.15 3.54l-37.46-64.77v62.44a6 6 0 0 1-12 0v-78.54a7.68 7.68 0 0 1 14.32-3.85L462 276.47v-60.58a6 6 0 1 1 12 0Z" class="color000000 svgShape"/><ellipse cx="332.43" cy="256" class="color000000 svgShape" rx="29.42" ry="34.11"/><path d="M99.89 329.31c5.32 5.53 15.61 9.38 27.13 9.38s21.8-3.85 27.12-9.38a118 118 0 0 1-54.25 0Z" class="color000000 svgShape"/><path d="M169.69 324.39c-2.44 15-20.31 26.29-42.68 26.29s-40.23-11.29-42.67-26.29A109.3 109.3 0 0 1 71 318a56.42 56.42 0 0 0-14.09 37.45 20.23 20.23 0 0 0 20.2 20.2h99.76a20.2 20.2 0 0 0 20.2-20.2A56.33 56.33 0 0 0 183 318a108.54 108.54 0 0 1-13.31 6.39zm62.51-89.28c0 1 .05 2 .05 3.06a85.44 85.44 0 0 1-2.5 20.55 14.71 14.71 0 0 0 2.45-23.61zm-210.36 0a14.72 14.72 0 0 0 2.45 23.62 85.59 85.59 0 0 1-2.5-20.56c0-1.02.01-2.04.05-3.06z" class="color000000 svgShape"/><path d="M217.78 232a6 6 0 0 1-3.56.06 45.61 45.61 0 0 1-20.5-13 53.34 53.34 0 0 0-24.38-15.45 137 137 0 0 0-83.26 2.42 57.63 57.63 0 0 0-23.53 15.33c-2 2.16-3.91 4.11-5.72 5.77a21.43 21.43 0 0 1-20.74 4.78 14.91 14.91 0 0 0-2-.47c-.2 2.23-.3 4.47-.3 6.7 0 45.38 41.82 82.3 93.23 82.3s93.23-36.92 93.23-82.3c0-2.23-.1-4.47-.3-6.7a14.29 14.29 0 0 0-2.17.56ZM89.87 255.47a6 6 0 1 1-12 0v-5.72a6 6 0 0 1 12 0Zm51.79 20.8a16.72 16.72 0 0 1-29.29 0 6 6 0 0 1 10.51-5.79 4.72 4.72 0 0 0 8.27 0 6 6 0 0 1 10.51 5.79Zm34.49-20.8a6 6 0 1 1-12 0v-5.72a6 6 0 0 1 12 0Z" class="color000000 svgShape"/><path d="M212.4 156.45a16.56 16.56 0 0 0-4.37-7.74c-6.35-6.08-14.36-8-25.21-6.1a75 75 0 0 1-23.4.27l-5.17-.71q-21-2.94-42.08-5.85a82.55 82.55 0 0 0-42.92 12.24l-.27.17A82.84 82.84 0 0 0 33.39 195a6 6 0 0 1-.26.71A107.2 107.2 0 0 0 25.57 220a27.08 27.08 0 0 1 6.16-.72 26.79 26.79 0 0 1 7.91 1.19 9.36 9.36 0 0 0 9.07-2.15c1.57-1.44 3.25-3.13 5-5a69.6 69.6 0 0 1 28.43-18.56 148.93 148.93 0 0 1 90.5-2.61A65.29 65.29 0 0 1 202.55 211a33.73 33.73 0 0 0 13.45 9 27 27 0 0 1 4.2-.66v-36.57a46.19 46.19 0 0 0-7.13-24.71 6.27 6.27 0 0 1-.67-1.61Z" class="color000000 svgShape"/></g></svg>