<svg xmlns="http://www.w3.org/2000/svg" viewBox="0 0 64 64"><path fill="#275313" d="M47.91521,45.64419l-11.10449,3.2216c-.73477.69003-1.71605,1.12098-2.80115,1.12098h-9.27303c-.55271,0-.99996-.44725-.99996-.99996s.44725-.99996.99996-.99996h9.27303c1.16108,0,2.10538-.94429,2.10538-2.10538s-.94429-2.10538-2.10538-2.10538h-6.47823c-.90035,0-1.77629-.25487-2.53502-.73722-1.83005-1.0916-4.39403-3.22471-6.66574-3.03898,0,0-11.33348,0-11.33343,0-1.3255-.02559-1.30251-1.97752-.00005-1.99991,0,0,11.33348,0,11.33348.00017,2.758-.19008,5.53165,1.9707,7.73794,3.35027.43748.27928.94332.42576,1.46283.42576h6.47823c2.26357,0,4.10529,1.84172,4.10529,4.10529,0,.18505-.03076.36186-.05462.5405,0,0,9.29836-2.69763,9.29826-2.6976,4.27174-1.16713,6.52911,4.8136,2.56151,6.75943l-17.42794,8.25256c-1.78215.84469-3.70101,1.26362-5.61596,1.26362-2.28994,0-4.57304-.59958-6.61104-1.78898l-6.91864-4.03498c-.2744-.16015-.58786-.24511-.90621-.24511h-5.44312c-.55271,0-.99996-.44725-.99996-.99996s.44725-.99996.99996-.99996h5.44312c.67087,0,1.33295.1787,1.913.51658l6.91962,4.03595c3.17076,1.8505,7.04363,2.01456,10.3638.44627l17.42794-8.25256c1.79388-.86442.73376-3.56148-1.14936-3.03307ZM39.96543,16.00096c1.33266-.13466,7.84066,1.12637,6.66175,3.1737-.28905.47019-.90426.61618-1.37592.32762-1.59661-.98238-3.42465-1.5014-5.28574-1.50135-9.28788.00156-13.49294,11.70188-6.47014,17.60983.18133-2.23562,1.49414-4.15594,3.36838-5.17921-.95101-.85494-1.56127-2.08139-1.56127-3.45781.19464-6.1665,9.13732-6.16561,9.3326-.0001,0,1.37665-.61063,2.60303-1.562,3.45804,1.87272,1.02254,3.18492,2.9406,3.36789,5.17397,2.15249-1.83561,3.52395-4.5615,3.52395-7.60519,0-1.86222-.51951-3.69027-1.50091-5.2859-.28905-.47019-.14257-1.08589.32717-1.3755,2.03713-1.18578,3.31409,5.32844,3.17356,6.66123.10161,9.1253-10.21325,14.99657-17.91971,10.4245-10.569-6.08364-6.43961-22.28541,5.92039-22.42383ZM39.96822,29.6405c3.51573-.0916,3.51692-5.24102.00008-5.33326-3.51477.09197-3.51498,5.24089-.00008,5.33326ZM35.4685,36.91923c2.67133,1.42661,6.32931,1.42532,8.99951-.00269.55353-6.47391-8.61362-7.22788-8.99952-.77681,0,0,0,.77957,0,.7795ZM43.19564,9.85816c.15191.9374.58132,2.19179-.40129,2.8421-.90721.73274-1.99505-.0674-2.82604-.49704-.83308.43266-1.9174,1.22726-2.82598.4966-.98198-.64891-.55145-1.90721-.40038-2.84167-.67495-.66778-1.75695-1.43061-1.34664-2.5335.31411-1.13494,1.64305-1.1152,2.57898-1.25972.42794-.84796.81788-2.11365,1.99495-2.06338,1.17522-.05228,1.56733,1.21946,1.99406,2.06338.93813.14425,2.26188.12515,2.57805,1.2582.41352,1.1023-.6731,1.86912-1.3457,2.53502ZM42.12543,8.10923s-.96968-.14062-.96968-.14065c-.66922-.04115-.92531-.94115-1.18745-1.42572-.26112.48069-.51768,1.38741-1.18647,1.42576l-.96968.14062s.70212.68356.70209.68359c.51615.42611.19502,1.30555.12206,1.85097.30349-.13634.98654-.60081,1.33201-.57031.34895-.02922,1.02458.43042,1.33296.57082-.07081-.54215-.3953-1.42778.12204-1.85151l.70212-.68356ZM23.04723,13.9c-.29824-.90232-.91575-2.07366-.0479-2.86993.79825-.86729,1.96926-.24621,2.86901.04931.75444-.5592,1.70348-1.51197,2.71367-.93261,1.07177.48689.84406,1.79765.83981,2.74352.77032.55423,1.95933,1.13912,1.72649,2.29181-.13187,1.16971-1.44939,1.35933-2.35047,1.64788-.28821.90405-.47869,2.21614-1.64634,2.34948-1.14602.23884-1.74223-.95818-2.29287-1.7255-.94918.00433-2.25607.23064-2.74405-.84122-.5812-1.0088.37757-1.9595.93264-2.71276ZM24.37911,15.46c.54664.01437,1.47107-.16847,1.80855.41012,0,0,.56638.80026.56639.8003.18211-.51563.29406-1.4519.94819-1.59421,0,0,.93648-.29051.93652-.29051-.43401-.33323-1.29054-.72965-1.22362-1.39594l.01269-.97945s-.78512.58591-.78514.58588c-.49953.4423-1.32155-.01038-1.84758-.16894.15597.52448.61484,1.3472.16994,1.8476,0,0-.58591.78512-.58595.78514ZM50.51476,12.8903c-.00401-.94972-.22992-2.25472.84072-2.74397,1.00818-.58262,1.96099.37873,2.71375.93305.90163-.29765,2.07311-.91608,2.86993-.04839.86743.79462.2452,1.97051-.0498,2.86901.55915.75398,1.51315,1.70475.93262,2.71416-.48731,1.03174-1.81783.85558-2.74304.83981-.55243.76972-1.14454,1.9609-2.29181,1.726-1.16946-.13182-1.35947-1.44822-1.64837-2.34999-.90446-.28891-2.21587-.47888-2.34955-1.64783-.23429-1.1521.95828-1.73841,1.72556-2.29186ZM51.29885,14.78521s.93551.291.9355.29104c.65437.14487.76668,1.07465.94918,1.59418.33434-.43856.72524-1.27896,1.39545-1.22313l.97945.01269s-.58591-.78512-.58588-.78514c-.44324-.50185.0113-1.32013.16894-1.84758-.52198.15626-1.35148.61239-1.84663.16946,0,0-.7861-.5864-.78612-.58644-.01406.5466.16788,1.47176-.41012,1.80904l-.79977.56589Z" class="color000000 svgShape"/></svg>