<svg xmlns="http://www.w3.org/2000/svg" viewBox="0 0 52 52"><path fill="#275313" d="M14.533 25.162c.263 0 .524-.012.784-.036 4.342-.4 7.807-4.046 7.807-8.553 0-4.731-3.854-8.58-8.59-8.58-4.737 0-8.59 3.849-8.59 8.58 0 4.82 3.94 8.59 8.59 8.59zm.094-7.298a1.184 1.184 0 0 0-.188 0 1.789 1.789 0 0 1-1.697-1.781c0-.988.804-1.792 1.792-1.792s1.79.804 1.79 1.792c0 .956-.753 1.732-1.697 1.781zm3.674 4.078c-2.177 1.528-5.215 1.63-7.54-.004 1.715-2.7 5.745-2.814 7.54.004zm-10.358-5.37c0-3.628 2.956-6.58 6.59-6.58s6.59 2.952 6.59 6.58a6.565 6.565 0 0 1-1.35 3.986 6.244 6.244 0 0 0-2.375-2.02c.57-.663.927-1.514.927-2.455 0-2.091-1.701-3.792-3.791-3.792-2.091 0-3.792 1.701-3.792 3.792 0 .94.357 1.791.926 2.454a6.445 6.445 0 0 0-2.372 2.025 6.567 6.567 0 0 1-1.353-3.99z" class="color000000 svgShape"/><path fill="#275313" d="M2.057 46.805a1 1 0 0 0 1 1H13.24c.937.27 1.642.27 2.58 0h33.236a1 1 0 0 0 0-2h-.497V17.292a1 1 0 0 0-1-1h-4.45a1 1 0 0 0-1 1v28.513h-1.962V24.292a1 1 0 0 0-1-1h-4.45a1 1 0 0 0-1 1v21.513h-1.962V31.292a1 1 0 0 0-1-1h-4.45a1 1 0 0 0-1 1v14.513h-6.788a4.659 4.659 0 0 0 .734-2.498v-9.64c0-.832-.48-1.546-1.171-1.904V28.65c5.229-1.53 9.063-6.36 9.063-12.077 0-6.937-5.648-12.58-12.59-12.58-6.943 0-12.59 5.643-12.59 12.58 0 5.715 3.831 10.545 9.058 12.076v3.113a2.146 2.146 0 0 0-1.17 1.905v9.64c0 .92.275 1.773.733 2.498H3.057a1 1 0 0 0-1 1zM44.11 18.292h2.45v27.51h-2.45v-27.51zm-8.412 7h2.45v20.51h-2.45v-20.51zm-8.412 7h2.45v13.51h-2.45v-13.51zM3.943 16.572c0-5.833 4.75-10.58 10.59-10.58s10.59 4.747 10.59 10.58c0 5.88-4.801 10.59-10.59 10.59-5.79 0-10.59-4.71-10.59-10.59zm12.118 12.502v2.436h-3.059v-2.437c.839.1 2.104.116 3.059 0zm-4.23 14.233v-9.64c0-.084.068-.152.152-.152h5.097c.084 0 .152.068.152.152v9.64c0 3.478-5.4 3.478-5.4 0z" class="color000000 svgShape"/><path fill="#275313" d="M22.417 30.39a1 1 0 0 0 1.414 0l11.544-11.545c.443.219.926.347 1.429.347 1.78 0 3.23-1.448 3.23-3.23 0-.5-.129-.982-.35-1.427l6.045-6.052v5.17a1 1 0 0 0 2 0V6.087a.988.988 0 0 0-1.013-1.022h-7.568a1 1 0 0 0 0 2h5.17l-6.037 6.044a3.24 3.24 0 0 0-1.477-.377 3.234 3.234 0 0 0-3.23 3.23c0 .514.14 1.017.378 1.478L22.417 28.975a1 1 0 0 0 0 1.415zm14.387-15.658c.697 0 1.23.561 1.23 1.23 0 .678-.553 1.23-1.23 1.23-.713 0-1.23-.576-1.23-1.23 0-.678.551-1.23 1.23-1.23z" class="color000000 svgShape"/></svg>