<svg xmlns="http://www.w3.org/2000/svg" enable-background="new 0 0 512 512" viewBox="0 0 512 512"><path fill="#275313" d="M451.989,286.198c0-0.009,0.001-0.017,0.001-0.025s-0.001-0.017-0.001-0.025c-0.007-53.52-21.585-102.088-56.486-137.489   c-0.279-0.372-0.578-0.733-0.916-1.072s-0.7-0.636-1.071-0.916c-35.398-34.898-83.962-56.477-137.477-56.487   c-0.013,0-0.025-0.002-0.039-0.002s-0.026,0.002-0.039,0.002c-53.52,0.01-102.086,21.592-137.485,56.496   c-0.368,0.277-0.727,0.573-1.062,0.908c-0.335,0.335-0.631,0.694-0.909,1.063c-34.906,35.401-56.487,83.973-56.494,137.498   c0,0.009-0.001,0.017-0.001,0.025s0.001,0.017,0.001,0.025c0.006,49.158,18.289,96.171,51.482,132.378   c0.047,0.052,0.1,0.096,0.148,0.146c0.122,0.127,0.248,0.25,0.375,0.37c0.117,0.11,0.235,0.22,0.356,0.323   c0.121,0.104,0.245,0.201,0.371,0.299c0.137,0.105,0.272,0.211,0.413,0.309c0.123,0.085,0.249,0.164,0.375,0.244   c0.148,0.094,0.296,0.188,0.448,0.272c0.134,0.075,0.271,0.143,0.409,0.212c0.149,0.074,0.298,0.15,0.45,0.217   c0.151,0.066,0.306,0.125,0.461,0.184c0.145,0.056,0.289,0.111,0.436,0.16c0.165,0.054,0.333,0.1,0.501,0.146   c0.145,0.039,0.289,0.079,0.435,0.112c0.167,0.037,0.337,0.066,0.508,0.096c0.155,0.026,0.31,0.052,0.467,0.071   c0.161,0.02,0.323,0.032,0.486,0.044c0.172,0.013,0.343,0.022,0.516,0.026c0.072,0.001,0.143,0.011,0.215,0.011h11.489h251.292   h11.489c1.044,0,2.05-0.161,2.996-0.458c0.025-0.008,0.051-0.02,0.076-0.027c0.29-0.094,0.575-0.198,0.854-0.316   c0.121-0.052,0.239-0.116,0.359-0.173c0.178-0.085,0.357-0.167,0.53-0.262c0.139-0.076,0.272-0.165,0.408-0.248   c0.148-0.092,0.298-0.18,0.441-0.279c0.131-0.09,0.257-0.19,0.385-0.287c0.143-0.109,0.285-0.218,0.422-0.334   c0.115-0.098,0.227-0.202,0.338-0.307c0.143-0.134,0.283-0.269,0.418-0.41c0.047-0.049,0.098-0.091,0.144-0.141   C433.699,382.369,451.982,335.358,451.989,286.198z M130.354,401.819h-7.015c-25.78-29.542-40.833-66.594-43.035-105.646h19.325   c5.523,0,10-4.478,10-10s-4.477-10-10-10H80.301c2.309-41.006,18.72-78.299,44.45-107.106l13.606,13.607   c1.953,1.953,4.512,2.929,7.071,2.929c2.559,0,5.119-0.977,7.071-2.929c3.905-3.905,3.906-10.237,0-14.142l-13.607-13.607   C167.7,129.194,204.993,112.782,246,110.474v19.327c0,5.523,4.477,10,10,10c5.522,0,10-4.477,10-10v-19.327   c41.006,2.309,78.299,18.72,107.106,44.45L359.5,168.53c-3.905,3.905-3.905,10.237,0,14.142c1.953,1.953,4.512,2.929,7.071,2.929   c2.559,0,5.118-0.977,7.071-2.929l13.606-13.605c25.73,28.807,42.142,66.101,44.45,107.106h-19.328c-5.522,0-10,4.478-10,10   s4.478,10,10,10h19.325c-2.202,39.052-17.256,76.104-43.036,105.646h-7.015H130.354z" class="color000000 svgShape"/><path fill="#275313" d="M286.116,205.208c-4.632-1.215-9.479,1.031-11.549,5.35L220.183,323.98c-0.275,0.574-0.496,1.174-0.657,1.791   c-4.732,18.076,6.125,36.634,24.204,41.368c2.814,0.735,5.705,1.109,8.594,1.109c15.394,0,28.869-10.41,32.77-25.314   c0.162-0.617,0.264-1.247,0.305-1.883l8.163-125.521C293.874,210.75,290.751,206.421,286.116,205.208z M265.512,338.667   c-1.854,5.682-7.162,9.581-13.188,9.581c-1.182,0-2.371-0.154-3.53-0.458c-7.14-1.869-11.531-8.999-10.107-16.145l31.562-65.826   L265.512,338.667z" class="color000000 svgShape"/></svg>